<mxfile host="app.diagrams.net" modified="2024-02-18T00:52:14.745Z" agent="Mozilla/5.0 (Windows NT 10.0; Win64; x64) AppleWebKit/537.36 (KHTML, like Gecko) Chrome/121.0.0.0 Safari/537.36" etag="s-4H9hookZGx_MEl06ph" version="23.1.5" type="github">
  <diagram id="R2lEEEUBdFMjLlhIrx00" name="Page-1">
    <mxGraphModel dx="3016" dy="1173" grid="1" gridSize="10" guides="1" tooltips="1" connect="1" arrows="1" fold="1" page="1" pageScale="1" pageWidth="850" pageHeight="1100" math="0" shadow="0" extFonts="Permanent Marker^https://fonts.googleapis.com/css?family=Permanent+Marker">
      <root>
        <mxCell id="0" />
        <mxCell id="1" parent="0" />
        <mxCell id="TVdMzuLn7zQAk3tw_G6I-8" value="" style="edgeStyle=orthogonalEdgeStyle;rounded=0;orthogonalLoop=1;jettySize=auto;html=1;endArrow=none;endFill=0;" parent="1" source="TVdMzuLn7zQAk3tw_G6I-1" target="TVdMzuLn7zQAk3tw_G6I-2" edge="1">
          <mxGeometry relative="1" as="geometry" />
        </mxCell>
        <mxCell id="JN1gHA88vI27tzydgnj9-1" style="edgeStyle=orthogonalEdgeStyle;rounded=0;orthogonalLoop=1;jettySize=auto;html=1;entryX=0;entryY=0.5;entryDx=0;entryDy=0;endArrow=none;endFill=0;" edge="1" parent="1" source="TVdMzuLn7zQAk3tw_G6I-1" target="TVdMzuLn7zQAk3tw_G6I-42">
          <mxGeometry relative="1" as="geometry" />
        </mxCell>
        <mxCell id="JN1gHA88vI27tzydgnj9-2" style="edgeStyle=orthogonalEdgeStyle;rounded=0;orthogonalLoop=1;jettySize=auto;html=1;entryX=0;entryY=0.5;entryDx=0;entryDy=0;endArrow=none;endFill=0;" edge="1" parent="1" source="TVdMzuLn7zQAk3tw_G6I-1" target="TVdMzuLn7zQAk3tw_G6I-41">
          <mxGeometry relative="1" as="geometry" />
        </mxCell>
        <mxCell id="JN1gHA88vI27tzydgnj9-3" style="edgeStyle=orthogonalEdgeStyle;rounded=0;orthogonalLoop=1;jettySize=auto;html=1;entryX=0;entryY=0.5;entryDx=0;entryDy=0;endArrow=none;endFill=0;" edge="1" parent="1" source="TVdMzuLn7zQAk3tw_G6I-1" target="TVdMzuLn7zQAk3tw_G6I-40">
          <mxGeometry relative="1" as="geometry" />
        </mxCell>
        <mxCell id="TVdMzuLn7zQAk3tw_G6I-1" value="Konzern" style="rounded=0;whiteSpace=wrap;html=1;" parent="1" vertex="1">
          <mxGeometry x="360" y="120" width="120" height="40" as="geometry" />
        </mxCell>
        <mxCell id="TVdMzuLn7zQAk3tw_G6I-9" value="" style="edgeStyle=orthogonalEdgeStyle;rounded=0;orthogonalLoop=1;jettySize=auto;html=1;endArrow=none;endFill=0;" parent="1" source="TVdMzuLn7zQAk3tw_G6I-2" target="TVdMzuLn7zQAk3tw_G6I-6" edge="1">
          <mxGeometry relative="1" as="geometry" />
        </mxCell>
        <mxCell id="TVdMzuLn7zQAk3tw_G6I-10" style="edgeStyle=orthogonalEdgeStyle;rounded=0;orthogonalLoop=1;jettySize=auto;html=1;entryX=0.5;entryY=0;entryDx=0;entryDy=0;endArrow=none;endFill=0;" parent="1" source="TVdMzuLn7zQAk3tw_G6I-21" target="TVdMzuLn7zQAk3tw_G6I-5" edge="1">
          <mxGeometry relative="1" as="geometry" />
        </mxCell>
        <mxCell id="JN1gHA88vI27tzydgnj9-5" style="edgeStyle=orthogonalEdgeStyle;rounded=0;orthogonalLoop=1;jettySize=auto;html=1;entryX=0;entryY=0.5;entryDx=0;entryDy=0;endArrow=none;endFill=0;" edge="1" parent="1" source="TVdMzuLn7zQAk3tw_G6I-2" target="TVdMzuLn7zQAk3tw_G6I-47">
          <mxGeometry relative="1" as="geometry" />
        </mxCell>
        <mxCell id="JN1gHA88vI27tzydgnj9-6" style="edgeStyle=orthogonalEdgeStyle;rounded=0;orthogonalLoop=1;jettySize=auto;html=1;entryX=0;entryY=0.5;entryDx=0;entryDy=0;endArrow=none;endFill=0;" edge="1" parent="1" source="TVdMzuLn7zQAk3tw_G6I-2" target="TVdMzuLn7zQAk3tw_G6I-46">
          <mxGeometry relative="1" as="geometry" />
        </mxCell>
        <mxCell id="TVdMzuLn7zQAk3tw_G6I-2" value="Teilkonzern" style="rounded=0;whiteSpace=wrap;html=1;" parent="1" vertex="1">
          <mxGeometry x="360" y="280" width="120" height="40" as="geometry" />
        </mxCell>
        <mxCell id="JN1gHA88vI27tzydgnj9-32" style="edgeStyle=orthogonalEdgeStyle;rounded=0;orthogonalLoop=1;jettySize=auto;html=1;entryX=0;entryY=0.5;entryDx=0;entryDy=0;endArrow=none;endFill=0;" edge="1" parent="1" source="TVdMzuLn7zQAk3tw_G6I-3" target="JN1gHA88vI27tzydgnj9-27">
          <mxGeometry relative="1" as="geometry" />
        </mxCell>
        <mxCell id="JN1gHA88vI27tzydgnj9-33" style="edgeStyle=orthogonalEdgeStyle;rounded=0;orthogonalLoop=1;jettySize=auto;html=1;entryX=0;entryY=0.5;entryDx=0;entryDy=0;endArrow=none;endFill=0;" edge="1" parent="1" source="TVdMzuLn7zQAk3tw_G6I-3" target="JN1gHA88vI27tzydgnj9-26">
          <mxGeometry relative="1" as="geometry" />
        </mxCell>
        <mxCell id="JN1gHA88vI27tzydgnj9-34" style="edgeStyle=orthogonalEdgeStyle;rounded=0;orthogonalLoop=1;jettySize=auto;html=1;entryX=0;entryY=0.5;entryDx=0;entryDy=0;endArrow=none;endFill=0;" edge="1" parent="1" source="TVdMzuLn7zQAk3tw_G6I-3" target="JN1gHA88vI27tzydgnj9-25">
          <mxGeometry relative="1" as="geometry" />
        </mxCell>
        <mxCell id="TVdMzuLn7zQAk3tw_G6I-3" value="Mitarbeiter" style="rounded=0;whiteSpace=wrap;html=1;" parent="1" vertex="1">
          <mxGeometry x="220" y="720" width="120" height="40" as="geometry" />
        </mxCell>
        <mxCell id="TVdMzuLn7zQAk3tw_G6I-12" style="edgeStyle=orthogonalEdgeStyle;rounded=0;orthogonalLoop=1;jettySize=auto;html=1;entryX=0.5;entryY=0;entryDx=0;entryDy=0;endArrow=none;endFill=0;" parent="1" source="TVdMzuLn7zQAk3tw_G6I-4" target="TVdMzuLn7zQAk3tw_G6I-3" edge="1">
          <mxGeometry relative="1" as="geometry" />
        </mxCell>
        <mxCell id="TVdMzuLn7zQAk3tw_G6I-13" style="edgeStyle=orthogonalEdgeStyle;rounded=0;orthogonalLoop=1;jettySize=auto;html=1;entryX=0.5;entryY=0;entryDx=0;entryDy=0;endArrow=none;endFill=0;exitX=0;exitY=0.5;exitDx=0;exitDy=0;" parent="1" source="TVdMzuLn7zQAk3tw_G6I-19" target="TVdMzuLn7zQAk3tw_G6I-7" edge="1">
          <mxGeometry relative="1" as="geometry" />
        </mxCell>
        <mxCell id="JN1gHA88vI27tzydgnj9-17" style="edgeStyle=orthogonalEdgeStyle;rounded=0;orthogonalLoop=1;jettySize=auto;html=1;entryX=1;entryY=0.5;entryDx=0;entryDy=0;endArrow=none;endFill=0;" edge="1" parent="1" source="TVdMzuLn7zQAk3tw_G6I-4" target="TVdMzuLn7zQAk3tw_G6I-43">
          <mxGeometry relative="1" as="geometry" />
        </mxCell>
        <mxCell id="JN1gHA88vI27tzydgnj9-20" style="edgeStyle=orthogonalEdgeStyle;rounded=0;orthogonalLoop=1;jettySize=auto;html=1;entryX=1;entryY=0.5;entryDx=0;entryDy=0;endArrow=none;endFill=0;" edge="1" parent="1" source="TVdMzuLn7zQAk3tw_G6I-4" target="JN1gHA88vI27tzydgnj9-18">
          <mxGeometry relative="1" as="geometry" />
        </mxCell>
        <mxCell id="JN1gHA88vI27tzydgnj9-21" style="edgeStyle=orthogonalEdgeStyle;rounded=0;orthogonalLoop=1;jettySize=auto;html=1;entryX=1;entryY=0.5;entryDx=0;entryDy=0;endArrow=none;endFill=0;" edge="1" parent="1" source="TVdMzuLn7zQAk3tw_G6I-4" target="JN1gHA88vI27tzydgnj9-19">
          <mxGeometry relative="1" as="geometry" />
        </mxCell>
        <mxCell id="TVdMzuLn7zQAk3tw_G6I-4" value="Unterabteilung&lt;div&gt;&lt;br/&gt;&lt;/div&gt;" style="rounded=0;whiteSpace=wrap;html=1;" parent="1" vertex="1">
          <mxGeometry x="120" y="560" width="120" height="40" as="geometry" />
        </mxCell>
        <mxCell id="TVdMzuLn7zQAk3tw_G6I-11" value="" style="edgeStyle=orthogonalEdgeStyle;rounded=0;orthogonalLoop=1;jettySize=auto;html=1;endArrow=none;endFill=0;" parent="1" source="TVdMzuLn7zQAk3tw_G6I-15" target="TVdMzuLn7zQAk3tw_G6I-4" edge="1">
          <mxGeometry relative="1" as="geometry" />
        </mxCell>
        <mxCell id="JN1gHA88vI27tzydgnj9-13" style="edgeStyle=orthogonalEdgeStyle;rounded=0;orthogonalLoop=1;jettySize=auto;html=1;entryX=1;entryY=0.5;entryDx=0;entryDy=0;endArrow=none;endFill=0;" edge="1" parent="1" source="TVdMzuLn7zQAk3tw_G6I-5" target="TVdMzuLn7zQAk3tw_G6I-54">
          <mxGeometry relative="1" as="geometry" />
        </mxCell>
        <mxCell id="JN1gHA88vI27tzydgnj9-16" style="edgeStyle=orthogonalEdgeStyle;rounded=0;orthogonalLoop=1;jettySize=auto;html=1;entryX=1;entryY=0.5;entryDx=0;entryDy=0;endArrow=none;endFill=0;" edge="1" parent="1" source="TVdMzuLn7zQAk3tw_G6I-5" target="JN1gHA88vI27tzydgnj9-15">
          <mxGeometry relative="1" as="geometry" />
        </mxCell>
        <mxCell id="TVdMzuLn7zQAk3tw_G6I-5" value="Abteilung" style="rounded=0;whiteSpace=wrap;html=1;" parent="1" vertex="1">
          <mxGeometry x="120" y="400" width="120" height="40" as="geometry" />
        </mxCell>
        <mxCell id="JN1gHA88vI27tzydgnj9-8" style="edgeStyle=orthogonalEdgeStyle;rounded=0;orthogonalLoop=1;jettySize=auto;html=1;entryX=0;entryY=0.5;entryDx=0;entryDy=0;endArrow=none;endFill=0;" edge="1" parent="1" source="TVdMzuLn7zQAk3tw_G6I-6" target="TVdMzuLn7zQAk3tw_G6I-44">
          <mxGeometry relative="1" as="geometry" />
        </mxCell>
        <mxCell id="JN1gHA88vI27tzydgnj9-10" style="edgeStyle=orthogonalEdgeStyle;rounded=0;orthogonalLoop=1;jettySize=auto;html=1;entryX=0;entryY=0.5;entryDx=0;entryDy=0;endArrow=none;endFill=0;" edge="1" parent="1" source="TVdMzuLn7zQAk3tw_G6I-6" target="JN1gHA88vI27tzydgnj9-9">
          <mxGeometry relative="1" as="geometry" />
        </mxCell>
        <mxCell id="TVdMzuLn7zQAk3tw_G6I-6" value="Standort" style="rounded=0;whiteSpace=wrap;html=1;" parent="1" vertex="1">
          <mxGeometry x="360" y="440" width="120" height="40" as="geometry" />
        </mxCell>
        <mxCell id="JN1gHA88vI27tzydgnj9-30" style="edgeStyle=orthogonalEdgeStyle;rounded=0;orthogonalLoop=1;jettySize=auto;html=1;entryX=0;entryY=0.5;entryDx=0;entryDy=0;" edge="1" parent="1" source="TVdMzuLn7zQAk3tw_G6I-7" target="JN1gHA88vI27tzydgnj9-29">
          <mxGeometry relative="1" as="geometry" />
        </mxCell>
        <mxCell id="JN1gHA88vI27tzydgnj9-35" style="edgeStyle=orthogonalEdgeStyle;rounded=0;orthogonalLoop=1;jettySize=auto;html=1;entryX=1;entryY=0.5;entryDx=0;entryDy=0;endArrow=none;endFill=0;" edge="1" parent="1" source="TVdMzuLn7zQAk3tw_G6I-7" target="JN1gHA88vI27tzydgnj9-24">
          <mxGeometry relative="1" as="geometry" />
        </mxCell>
        <mxCell id="JN1gHA88vI27tzydgnj9-36" style="edgeStyle=orthogonalEdgeStyle;rounded=0;orthogonalLoop=1;jettySize=auto;html=1;entryX=1;entryY=0.5;entryDx=0;entryDy=0;endArrow=none;endFill=0;" edge="1" parent="1" source="TVdMzuLn7zQAk3tw_G6I-7" target="JN1gHA88vI27tzydgnj9-23">
          <mxGeometry relative="1" as="geometry" />
        </mxCell>
        <mxCell id="JN1gHA88vI27tzydgnj9-37" style="edgeStyle=orthogonalEdgeStyle;rounded=0;orthogonalLoop=1;jettySize=auto;html=1;entryX=1;entryY=0.5;entryDx=0;entryDy=0;endArrow=none;endFill=0;" edge="1" parent="1" source="TVdMzuLn7zQAk3tw_G6I-7" target="JN1gHA88vI27tzydgnj9-22">
          <mxGeometry relative="1" as="geometry" />
        </mxCell>
        <mxCell id="TVdMzuLn7zQAk3tw_G6I-7" value="Abteilungsleiter" style="rounded=0;whiteSpace=wrap;html=1;" parent="1" vertex="1">
          <mxGeometry x="20" y="720" width="120" height="40" as="geometry" />
        </mxCell>
        <mxCell id="TVdMzuLn7zQAk3tw_G6I-16" value="" style="edgeStyle=orthogonalEdgeStyle;rounded=0;orthogonalLoop=1;jettySize=auto;html=1;startArrow=none;startFill=0;endArrow=none;endFill=0;" parent="1" source="TVdMzuLn7zQAk3tw_G6I-5" target="TVdMzuLn7zQAk3tw_G6I-15" edge="1">
          <mxGeometry relative="1" as="geometry">
            <mxPoint x="180" y="440" as="sourcePoint" />
            <mxPoint x="180" y="520" as="targetPoint" />
          </mxGeometry>
        </mxCell>
        <mxCell id="TVdMzuLn7zQAk3tw_G6I-15" value="hat" style="rhombus;whiteSpace=wrap;html=1;" parent="1" vertex="1">
          <mxGeometry x="120" y="470" width="120" height="60" as="geometry" />
        </mxCell>
        <mxCell id="TVdMzuLn7zQAk3tw_G6I-18" value="hat" style="rhombus;whiteSpace=wrap;html=1;" parent="1" vertex="1">
          <mxGeometry x="360" y="190" width="120" height="60" as="geometry" />
        </mxCell>
        <mxCell id="TVdMzuLn7zQAk3tw_G6I-20" value="hat" style="rhombus;whiteSpace=wrap;html=1;" parent="1" vertex="1">
          <mxGeometry x="360" y="350" width="120" height="60" as="geometry" />
        </mxCell>
        <mxCell id="TVdMzuLn7zQAk3tw_G6I-25" value="" style="edgeStyle=orthogonalEdgeStyle;rounded=0;orthogonalLoop=1;jettySize=auto;html=1;endArrow=none;endFill=0;" parent="1" source="TVdMzuLn7zQAk3tw_G6I-5" target="TVdMzuLn7zQAk3tw_G6I-21" edge="1">
          <mxGeometry relative="1" as="geometry">
            <mxPoint x="180" y="400" as="sourcePoint" />
            <mxPoint x="180" y="320" as="targetPoint" />
          </mxGeometry>
        </mxCell>
        <mxCell id="TVdMzuLn7zQAk3tw_G6I-26" style="edgeStyle=orthogonalEdgeStyle;rounded=0;orthogonalLoop=1;jettySize=auto;html=1;endArrow=none;endFill=0;" parent="1" source="TVdMzuLn7zQAk3tw_G6I-21" edge="1">
          <mxGeometry relative="1" as="geometry">
            <mxPoint x="360" y="300" as="targetPoint" />
          </mxGeometry>
        </mxCell>
        <mxCell id="TVdMzuLn7zQAk3tw_G6I-21" value="hat" style="rhombus;whiteSpace=wrap;html=1;" parent="1" vertex="1">
          <mxGeometry x="120" y="270" width="120" height="60" as="geometry" />
        </mxCell>
        <mxCell id="TVdMzuLn7zQAk3tw_G6I-27" value="" style="edgeStyle=orthogonalEdgeStyle;rounded=0;orthogonalLoop=1;jettySize=auto;html=1;entryX=0.5;entryY=0;entryDx=0;entryDy=0;endArrow=none;endFill=0;" parent="1" source="TVdMzuLn7zQAk3tw_G6I-4" target="TVdMzuLn7zQAk3tw_G6I-19" edge="1">
          <mxGeometry relative="1" as="geometry">
            <mxPoint x="180" y="600" as="sourcePoint" />
            <mxPoint x="80" y="720" as="targetPoint" />
          </mxGeometry>
        </mxCell>
        <mxCell id="TVdMzuLn7zQAk3tw_G6I-19" value="hat" style="rhombus;whiteSpace=wrap;html=1;" parent="1" vertex="1">
          <mxGeometry x="120" y="630" width="120" height="60" as="geometry" />
        </mxCell>
        <mxCell id="TVdMzuLn7zQAk3tw_G6I-40" value="Branche" style="ellipse;whiteSpace=wrap;html=1;" parent="1" vertex="1">
          <mxGeometry x="520" y="180" width="120" height="20" as="geometry" />
        </mxCell>
        <mxCell id="TVdMzuLn7zQAk3tw_G6I-41" value="&lt;u&gt;SteuerID&lt;/u&gt;" style="ellipse;whiteSpace=wrap;html=1;" parent="1" vertex="1">
          <mxGeometry x="520" y="150" width="120" height="20" as="geometry" />
        </mxCell>
        <mxCell id="TVdMzuLn7zQAk3tw_G6I-42" value="Name" style="ellipse;whiteSpace=wrap;html=1;" parent="1" vertex="1">
          <mxGeometry x="520" y="120" width="120" height="20" as="geometry" />
        </mxCell>
        <mxCell id="TVdMzuLn7zQAk3tw_G6I-43" value="&lt;u&gt;Unterabteilungsnummer&lt;/u&gt;" style="ellipse;whiteSpace=wrap;html=1;" parent="1" vertex="1">
          <mxGeometry x="-60" y="560" width="140" height="20" as="geometry" />
        </mxCell>
        <mxCell id="TVdMzuLn7zQAk3tw_G6I-44" value="Land" style="ellipse;whiteSpace=wrap;html=1;" parent="1" vertex="1">
          <mxGeometry x="520" y="470" width="120" height="20" as="geometry" />
        </mxCell>
        <mxCell id="TVdMzuLn7zQAk3tw_G6I-45" value="Adresse" style="ellipse;whiteSpace=wrap;html=1;" parent="1" vertex="1">
          <mxGeometry x="520" y="440" width="120" height="20" as="geometry" />
        </mxCell>
        <mxCell id="TVdMzuLn7zQAk3tw_G6I-46" value="CEO" style="ellipse;whiteSpace=wrap;html=1;" parent="1" vertex="1">
          <mxGeometry x="520" y="340" width="120" height="20" as="geometry" />
        </mxCell>
        <mxCell id="TVdMzuLn7zQAk3tw_G6I-47" value="&lt;u&gt;Namen&lt;/u&gt;" style="ellipse;whiteSpace=wrap;html=1;" parent="1" vertex="1">
          <mxGeometry x="520" y="310" width="120" height="20" as="geometry" />
        </mxCell>
        <mxCell id="TVdMzuLn7zQAk3tw_G6I-48" value="Umsatz" style="ellipse;whiteSpace=wrap;html=1;" parent="1" vertex="1">
          <mxGeometry x="520" y="280" width="120" height="20" as="geometry" />
        </mxCell>
        <mxCell id="TVdMzuLn7zQAk3tw_G6I-53" value="&lt;u&gt;Abteilungsnummer&lt;/u&gt;" style="ellipse;whiteSpace=wrap;html=1;" parent="1" vertex="1">
          <mxGeometry x="-40" y="430" width="120" height="20" as="geometry" />
        </mxCell>
        <mxCell id="TVdMzuLn7zQAk3tw_G6I-54" value="Bereich" style="ellipse;whiteSpace=wrap;html=1;" parent="1" vertex="1">
          <mxGeometry x="-40" y="400" width="120" height="20" as="geometry" />
        </mxCell>
        <mxCell id="JN1gHA88vI27tzydgnj9-4" style="edgeStyle=orthogonalEdgeStyle;rounded=0;orthogonalLoop=1;jettySize=auto;html=1;entryX=0;entryY=0.5;entryDx=0;entryDy=0;endArrow=none;endFill=0;" edge="1" parent="1" source="TVdMzuLn7zQAk3tw_G6I-2" target="TVdMzuLn7zQAk3tw_G6I-48">
          <mxGeometry relative="1" as="geometry" />
        </mxCell>
        <mxCell id="JN1gHA88vI27tzydgnj9-7" style="edgeStyle=orthogonalEdgeStyle;rounded=0;orthogonalLoop=1;jettySize=auto;html=1;entryX=0;entryY=0.5;entryDx=0;entryDy=0;endArrow=none;endFill=0;" edge="1" parent="1" source="TVdMzuLn7zQAk3tw_G6I-6" target="TVdMzuLn7zQAk3tw_G6I-45">
          <mxGeometry relative="1" as="geometry" />
        </mxCell>
        <mxCell id="JN1gHA88vI27tzydgnj9-9" value="&lt;u&gt;PLZ&lt;/u&gt;" style="ellipse;whiteSpace=wrap;html=1;" vertex="1" parent="1">
          <mxGeometry x="520" y="500" width="120" height="20" as="geometry" />
        </mxCell>
        <mxCell id="JN1gHA88vI27tzydgnj9-14" style="edgeStyle=orthogonalEdgeStyle;rounded=0;orthogonalLoop=1;jettySize=auto;html=1;entryX=1;entryY=0.5;entryDx=0;entryDy=0;endArrow=none;endFill=0;" edge="1" parent="1" source="TVdMzuLn7zQAk3tw_G6I-5" target="TVdMzuLn7zQAk3tw_G6I-53">
          <mxGeometry relative="1" as="geometry" />
        </mxCell>
        <mxCell id="JN1gHA88vI27tzydgnj9-15" value="Mitarbeiteranzahl" style="ellipse;whiteSpace=wrap;html=1;" vertex="1" parent="1">
          <mxGeometry x="-40" y="460" width="120" height="20" as="geometry" />
        </mxCell>
        <mxCell id="JN1gHA88vI27tzydgnj9-18" value="Spezifikation" style="ellipse;whiteSpace=wrap;html=1;" vertex="1" parent="1">
          <mxGeometry x="-60" y="590" width="140" height="20" as="geometry" />
        </mxCell>
        <mxCell id="JN1gHA88vI27tzydgnj9-19" value="Anzahl Mitarbeiter" style="ellipse;whiteSpace=wrap;html=1;" vertex="1" parent="1">
          <mxGeometry x="-60" y="620" width="140" height="20" as="geometry" />
        </mxCell>
        <mxCell id="JN1gHA88vI27tzydgnj9-22" value="Name" style="ellipse;whiteSpace=wrap;html=1;" vertex="1" parent="1">
          <mxGeometry x="-160" y="780" width="120" height="20" as="geometry" />
        </mxCell>
        <mxCell id="JN1gHA88vI27tzydgnj9-23" value="&lt;u&gt;Personalnummer&lt;/u&gt;" style="ellipse;whiteSpace=wrap;html=1;" vertex="1" parent="1">
          <mxGeometry x="-160" y="750" width="120" height="20" as="geometry" />
        </mxCell>
        <mxCell id="JN1gHA88vI27tzydgnj9-24" value="Gehalt" style="ellipse;whiteSpace=wrap;html=1;" vertex="1" parent="1">
          <mxGeometry x="-160" y="720" width="120" height="20" as="geometry" />
        </mxCell>
        <mxCell id="JN1gHA88vI27tzydgnj9-25" value="Name" style="ellipse;whiteSpace=wrap;html=1;" vertex="1" parent="1">
          <mxGeometry x="380" y="780" width="120" height="20" as="geometry" />
        </mxCell>
        <mxCell id="JN1gHA88vI27tzydgnj9-26" value="&lt;u&gt;Personalnummer&lt;/u&gt;" style="ellipse;whiteSpace=wrap;html=1;" vertex="1" parent="1">
          <mxGeometry x="380" y="750" width="120" height="20" as="geometry" />
        </mxCell>
        <mxCell id="JN1gHA88vI27tzydgnj9-27" value="Gehalt" style="ellipse;whiteSpace=wrap;html=1;" vertex="1" parent="1">
          <mxGeometry x="380" y="720" width="120" height="20" as="geometry" />
        </mxCell>
        <mxCell id="JN1gHA88vI27tzydgnj9-31" style="edgeStyle=orthogonalEdgeStyle;rounded=0;orthogonalLoop=1;jettySize=auto;html=1;entryX=0.5;entryY=1;entryDx=0;entryDy=0;exitX=1;exitY=0.5;exitDx=0;exitDy=0;" edge="1" parent="1" source="JN1gHA88vI27tzydgnj9-29" target="TVdMzuLn7zQAk3tw_G6I-3">
          <mxGeometry relative="1" as="geometry" />
        </mxCell>
        <mxCell id="JN1gHA88vI27tzydgnj9-29" value="verantwortet" style="rhombus;whiteSpace=wrap;html=1;" vertex="1" parent="1">
          <mxGeometry x="120" y="810" width="120" height="60" as="geometry" />
        </mxCell>
      </root>
    </mxGraphModel>
  </diagram>
</mxfile>
